<?xml version="1.0" encoding="UTF-8" ?>
<!DOCTYPE svg PUBLIC "-//W3C//DTD SVG 1.1//EN" "http://www.w3.org/Graphics/SVG/1.1/DTD/svg11.dtd">
<svg width="295pt" height="171pt" viewBox="0 0 295 171" version="1.1" xmlns="http://www.w3.org/2000/svg">
<path fill="#ffffff" d=" M 0.00 0.00 L 295.00 0.00 L 295.00 171.00 L 0.00 171.00 L 0.00 0.00 Z" />
<path fill="#010101" d=" M 214.75 18.66 C 215.92 17.41 216.95 16.04 217.83 14.56 L 217.47 18.16 C 218.20 17.67 219.64 16.70 220.36 16.22 L 218.76 19.02 C 219.27 19.01 220.27 18.98 220.78 18.97 C 219.09 20.23 218.13 23.63 221.19 23.60 C 220.62 23.61 219.49 23.63 218.92 23.64 C 217.62 27.10 217.56 30.82 217.40 34.46 C 221.23 36.01 221.99 40.24 223.67 43.54 C 225.23 46.24 224.11 49.47 224.90 52.38 C 224.35 53.58 224.18 54.84 224.40 56.16 C 223.42 56.75 223.39 57.84 223.25 58.84 C 227.80 61.08 229.72 66.28 233.60 69.36 C 234.04 68.80 234.93 67.67 235.37 67.11 C 239.81 65.31 244.57 64.43 248.49 61.49 C 248.49 58.10 246.96 55.02 245.81 51.91 C 247.05 48.81 247.40 44.59 251.12 43.41 C 256.11 41.21 260.60 47.21 258.73 51.85 C 259.03 51.98 259.63 52.23 259.93 52.36 C 259.19 53.78 258.45 55.20 257.65 56.59 C 257.59 57.13 257.46 58.20 257.40 58.73 C 260.16 59.08 262.88 59.80 265.27 61.29 C 265.60 67.82 267.05 74.21 267.92 80.68 C 270.07 80.79 270.83 82.11 270.80 84.12 C 270.00 83.69 268.41 82.83 267.62 82.40 C 266.63 85.15 265.94 87.99 265.09 90.78 C 264.71 90.35 263.96 89.49 263.58 89.06 C 262.50 92.29 260.82 95.28 259.71 98.51 C 260.61 99.25 261.51 99.98 262.41 100.72 C 264.71 101.71 266.58 103.40 268.58 104.87 C 273.00 106.92 275.45 111.18 278.46 114.75 C 278.64 115.34 279.00 116.53 279.18 117.13 C 278.74 119.71 277.66 122.09 276.69 124.50 C 275.37 130.31 273.35 136.19 269.59 140.90 C 269.80 141.95 270.01 143.00 270.22 144.06 C 270.73 144.37 271.74 144.97 272.25 145.28 C 267.01 149.51 261.66 140.32 256.34 144.36 C 255.38 142.77 254.61 141.02 254.56 139.14 C 255.97 136.20 258.47 133.94 260.10 131.14 C 261.75 127.08 263.50 123.07 265.38 119.12 C 262.98 117.53 260.62 115.89 258.15 114.43 C 260.06 111.11 261.16 107.40 262.30 103.76 C 257.82 103.76 253.33 103.80 248.85 103.76 C 248.01 105.21 247.14 106.65 246.18 108.04 C 246.41 106.61 246.71 105.20 247.04 103.79 C 238.92 103.80 230.79 103.67 222.66 103.78 C 220.85 106.31 221.52 111.50 217.62 111.64 C 218.48 109.01 219.41 106.41 220.28 103.79 C 214.25 103.77 208.22 103.66 202.19 103.78 C 202.34 103.13 202.65 101.83 202.81 101.17 C 189.53 99.35 176.15 100.75 162.87 101.45 C 160.39 101.87 157.90 102.20 155.45 102.74 C 150.59 103.75 145.63 104.03 140.67 103.77 C 160.84 97.73 182.15 97.22 203.04 97.70 C 203.01 94.16 202.65 90.48 204.34 87.22 C 185.22 86.90 166.15 89.90 147.78 95.09 C 143.12 96.28 138.68 99.54 133.68 98.08 C 138.42 96.08 143.38 94.68 148.23 93.00 C 148.27 92.59 148.35 91.76 148.39 91.34 C 148.62 91.59 149.09 92.09 149.32 92.34 C 160.42 89.01 171.79 86.56 183.32 85.29 C 183.62 85.63 184.21 86.31 184.50 86.66 C 184.61 86.04 184.72 85.44 184.84 84.83 C 191.71 84.82 198.56 83.89 205.44 84.08 C 205.33 83.00 205.23 81.92 205.13 80.85 C 207.53 80.26 212.53 79.21 210.14 75.81 C 205.46 72.21 199.08 75.36 193.77 75.43 C 196.01 73.14 198.34 70.66 201.89 71.18 C 201.43 68.79 200.51 66.44 200.60 63.98 C 203.23 59.95 208.07 56.60 207.43 51.21 C 205.91 48.38 205.12 45.14 205.61 41.93 C 206.69 39.30 208.49 36.98 210.74 35.25 C 211.92 30.30 213.93 25.55 216.58 21.20 C 214.23 20.44 211.77 20.16 209.43 19.41 C 211.19 19.09 212.99 19.02 214.75 18.66 Z" />
<path fill="#385086" d=" M 138.40 27.50 C 139.77 25.30 141.94 21.45 145.08 22.85 C 146.86 23.36 147.31 25.30 148.16 26.71 C 144.30 40.35 137.43 52.84 131.56 65.67 C 128.95 71.55 125.83 77.27 124.32 83.57 C 131.13 77.88 135.38 69.80 141.44 63.41 C 141.89 63.14 142.77 62.60 143.21 62.33 C 138.98 69.82 134.34 77.19 128.56 83.59 C 126.58 85.50 123.91 88.36 120.89 87.09 C 118.45 85.38 117.79 81.97 118.29 79.17 C 118.15 79.16 117.87 79.15 117.72 79.14 C 114.80 83.67 111.72 88.14 108.20 92.24 C 106.76 94.28 102.61 94.84 101.98 91.84 C 100.62 86.21 103.73 80.94 105.27 75.70 C 97.83 84.17 93.45 94.77 86.62 103.68 C 85.49 105.08 83.72 105.65 82.17 106.43 C 80.84 105.98 79.50 105.55 78.15 105.16 C 75.79 103.12 74.42 99.80 75.75 96.79 C 80.74 83.89 89.50 72.88 98.61 62.65 C 101.43 59.97 103.83 56.07 107.97 55.48 C 112.11 56.11 114.15 60.33 115.44 63.87 C 115.75 63.76 116.37 63.54 116.68 63.43 C 116.24 63.98 115.37 65.09 114.93 65.65 C 113.69 63.72 112.10 62.08 110.12 60.91 C 101.72 66.43 95.74 74.82 90.13 82.99 C 88.32 86.36 84.87 89.97 86.76 94.01 C 87.97 93.25 89.37 92.65 90.21 91.43 C 95.74 84.52 100.61 77.11 106.38 70.39 C 107.78 68.54 110.00 67.75 112.03 66.84 C 113.35 68.26 114.87 69.91 114.05 72.03 C 112.21 78.64 107.74 84.34 106.79 91.25 C 111.30 85.78 115.59 80.02 119.04 73.83 C 124.64 56.37 134.57 40.83 143.32 24.87 C 141.70 25.78 140.07 26.67 138.40 27.50 Z" />
<path fill="#385086" d=" M 145.52 51.05 C 146.96 45.96 152.22 43.59 156.15 40.67 C 158.33 42.85 162.42 45.35 161.01 48.95 C 158.23 51.74 154.48 53.32 151.48 55.86 C 154.36 58.48 157.98 61.25 157.45 65.66 C 160.85 61.53 165.73 59.03 169.27 55.04 C 173.65 50.37 179.24 46.77 185.45 45.10 C 188.38 44.45 191.86 44.52 194.14 46.75 C 197.30 49.93 198.75 54.36 199.87 58.60 C 197.45 56.85 195.79 54.18 192.92 53.04 C 192.77 53.59 192.47 54.69 192.32 55.24 C 192.40 54.66 192.55 53.50 192.63 52.92 C 184.10 53.11 174.67 57.66 171.92 66.24 C 178.12 64.69 182.75 59.57 189.04 58.06 C 194.42 55.77 199.20 61.82 199.04 66.81 C 197.35 71.20 191.68 73.37 191.41 78.41 C 194.32 79.32 197.20 77.41 200.08 77.01 C 203.18 76.52 207.50 74.25 209.59 77.72 C 208.27 78.22 206.94 78.69 205.60 79.13 L 206.07 78.95 L 205.90 78.52 L 205.40 78.64 C 201.24 79.36 197.12 80.36 192.95 81.06 C 189.37 81.00 187.18 77.34 186.45 74.22 C 185.32 69.61 188.21 65.50 190.24 61.63 C 181.42 62.98 177.35 72.28 169.87 76.07 C 166.39 77.13 163.23 73.88 162.24 70.80 C 161.10 67.84 162.65 64.90 163.87 62.25 C 161.93 64.38 159.57 66.10 157.78 68.36 C 156.52 71.58 154.94 74.90 151.81 76.71 C 147.00 79.67 141.81 82.84 136.05 83.16 C 135.73 82.87 135.11 82.28 134.80 81.99 C 138.05 73.25 149.08 69.81 151.17 60.46 C 148.65 57.86 144.73 55.21 145.52 51.05 Z" />
<path fill="#385086" d=" M 64.25 46.36 C 67.74 45.61 71.95 44.55 75.02 47.04 C 76.81 48.74 77.74 51.54 76.80 53.91 C 74.31 61.00 69.29 66.82 64.05 72.05 C 61.92 74.01 59.93 76.53 56.89 76.97 C 60.83 70.91 67.18 65.72 67.75 58.04 C 67.90 53.97 63.14 53.04 59.99 53.12 C 54.73 53.44 49.74 55.35 44.73 56.83 C 40.04 58.20 35.46 60.55 32.41 64.46 C 30.26 67.57 31.35 71.75 33.53 74.53 C 36.69 77.77 40.86 79.81 45.10 81.24 C 52.96 83.97 61.81 82.10 69.43 85.71 C 72.96 87.27 72.62 91.97 71.09 94.87 C 66.06 105.17 55.11 111.55 44.14 113.63 C 42.05 113.60 39.96 113.71 37.88 113.99 C 37.87 114.45 37.87 115.37 37.86 115.83 C 38.79 116.62 39.75 117.39 40.73 118.13 L 38.98 118.00 L 38.18 117.94 C 37.52 119.06 36.88 120.19 36.25 121.33 C 35.75 120.63 35.27 119.91 34.81 119.19 C 35.29 118.52 36.26 117.16 36.74 116.49 C 34.94 115.10 32.94 113.98 30.66 113.59 C 29.79 113.34 28.92 113.10 28.05 112.85 C 26.71 112.42 25.39 111.93 24.10 111.39 C 24.95 112.97 25.73 114.58 26.45 116.22 C 24.68 113.70 23.35 110.80 20.79 108.94 C 20.79 109.69 20.80 111.19 20.80 111.94 L 20.42 111.81 C 21.16 107.97 16.59 106.80 14.56 104.42 C 11.63 100.97 8.62 97.32 7.22 92.94 C 6.96 91.54 6.95 88.90 9.05 89.27 C 14.13 89.61 19.34 89.48 24.23 91.06 C 24.53 93.66 22.64 95.23 20.59 96.37 C 20.65 94.90 20.10 94.70 18.94 95.76 C 18.63 95.97 18.00 96.38 17.68 96.59 C 17.60 97.70 17.51 98.81 17.39 99.92 C 17.69 99.35 18.30 98.21 18.60 97.64 L 18.88 97.11 C 18.62 102.18 24.00 104.31 27.01 107.43 L 25.70 104.62 C 26.15 104.67 27.05 104.77 27.50 104.81 C 27.65 103.62 27.82 102.43 28.00 101.25 C 28.45 103.93 30.48 105.57 32.60 106.97 C 33.79 108.00 35.02 109.01 36.25 110.00 C 44.65 110.28 53.72 108.09 59.83 102.01 C 62.82 99.05 63.02 93.06 58.46 91.51 C 46.90 87.15 32.73 86.08 24.67 75.52 C 22.25 71.64 18.86 65.83 22.76 61.81 C 28.53 57.40 35.95 56.17 42.63 53.67 C 49.81 51.17 56.93 48.45 64.25 46.36 Z" />
<path fill="#010101" d=" M 153.05 81.84 C 163.32 78.12 173.93 75.38 184.65 73.36 C 184.82 74.10 185.14 75.59 185.30 76.33 C 167.84 79.26 150.72 84.35 134.62 91.73 C 132.01 93.00 129.47 94.46 126.64 95.22 C 123.49 97.01 120.08 98.77 116.33 97.93 C 128.52 92.45 140.53 86.56 153.05 81.84 Z" />
<path fill="#010101" d=" M 205.90 78.52 L 206.07 78.95 L 205.60 79.13 L 205.40 78.64 L 205.90 78.52 Z" />
<path fill="#ffffff" d=" M 220.63 79.46 C 224.49 78.62 228.44 77.93 232.40 78.43 C 228.43 80.56 223.62 80.00 219.72 82.19 C 219.94 81.51 220.40 80.14 220.63 79.46 Z" />
<path fill="#ffffff" d=" M 240.63 78.55 C 240.88 78.92 241.37 79.67 241.62 80.04 C 241.38 82.20 243.08 83.70 244.24 85.30 C 243.88 86.40 243.51 87.50 243.11 88.59 C 240.20 89.38 238.93 92.26 237.46 94.59 C 235.72 97.56 233.26 99.99 231.16 102.69 C 230.27 98.16 228.12 94.06 225.93 90.05 C 224.95 88.20 222.80 87.03 222.62 84.78 C 224.42 83.27 226.89 84.01 229.02 83.80 C 232.71 83.94 236.27 82.92 239.82 82.04 C 240.02 81.17 240.43 79.42 240.63 78.55 Z" />
<path fill="#010101" d=" M 18.94 95.76 C 20.10 94.70 20.65 94.90 20.59 96.37 C 20.18 96.22 19.35 95.91 18.94 95.76 Z" />
<path fill="#010101" d=" M 18.60 97.64 C 18.67 97.50 18.81 97.24 18.88 97.11 L 18.60 97.64 Z" />
<path fill="#010101" d=" M 111.29 100.86 C 112.47 99.94 113.71 99.09 114.98 98.28 C 114.42 99.51 114.22 101.19 112.66 101.55 C 107.83 103.60 102.85 105.28 98.11 107.52 L 100.74 107.98 C 99.63 108.67 98.43 110.26 97.05 108.58 C 97.01 109.45 96.95 111.21 96.91 112.09 C 102.00 109.90 107.29 108.25 112.59 106.65 C 110.29 109.75 106.05 110.15 102.68 111.47 C 102.57 113.17 102.43 114.87 102.27 116.57 C 104.88 115.65 107.50 114.77 110.16 114.00 C 109.81 114.50 109.12 115.48 108.77 115.98 C 104.03 117.46 99.36 119.20 94.58 120.56 C 95.30 120.52 96.75 120.42 97.47 120.37 C 97.17 122.19 96.83 124.00 96.47 125.81 C 99.96 124.44 103.55 123.33 107.18 122.39 C 106.78 122.91 105.97 123.96 105.57 124.49 C 97.36 127.23 89.10 129.85 80.89 132.60 C 71.58 135.45 61.98 138.31 52.12 137.50 C 48.63 137.38 45.43 135.87 42.02 135.31 C 41.96 134.92 41.84 134.13 41.78 133.73 C 40.65 135.22 39.47 136.69 38.07 137.94 C 38.27 136.14 38.53 134.36 38.71 132.56 C 36.44 131.00 34.48 129.04 32.86 126.82 C 32.21 128.66 31.37 130.42 30.32 132.07 C 33.33 137.20 37.67 141.65 43.33 143.75 C 50.08 146.43 57.60 145.67 64.56 144.36 C 79.81 140.56 94.40 134.55 109.53 130.35 C 112.24 129.63 115.06 130.41 117.79 129.99 C 118.86 128.17 118.68 125.27 121.27 124.90 C 121.67 126.55 122.07 128.20 122.46 129.86 C 125.57 129.98 128.69 129.95 131.80 130.22 C 127.76 134.43 120.74 134.19 116.25 130.82 C 109.97 132.37 103.69 133.92 97.53 135.90 C 97.28 137.28 96.40 138.08 95.46 136.75 C 80.21 141.09 65.13 148.87 48.87 147.08 C 37.23 145.62 29.75 134.94 25.83 124.82 L 29.32 130.19 C 29.81 128.45 30.54 126.79 31.71 125.39 C 30.34 123.36 28.99 121.32 27.65 119.28 L 25.73 120.33 C 26.19 118.38 26.10 115.90 28.49 115.26 C 28.39 116.18 28.19 118.02 28.09 118.95 C 29.62 121.18 31.16 123.40 32.65 125.67 C 32.89 125.04 33.38 123.80 33.63 123.18 C 33.50 123.90 33.25 125.34 33.13 126.06 C 35.00 128.09 36.95 130.06 39.15 131.74 C 40.68 130.20 42.22 128.68 43.67 127.08 C 36.77 124.63 31.98 118.75 28.05 112.85 C 28.92 113.10 29.79 113.34 30.66 113.59 L 30.26 113.75 C 30.47 116.03 32.54 118.60 34.81 119.19 C 35.27 119.91 35.75 120.63 36.25 121.33 C 41.83 126.59 49.86 128.36 57.33 128.24 C 57.34 126.58 57.36 124.91 57.39 123.25 C 57.55 124.83 57.67 126.41 57.79 128.00 C 61.63 127.85 65.47 127.46 69.24 126.62 C 70.57 124.71 72.27 123.08 74.65 122.63 C 74.68 122.04 74.73 120.86 74.76 120.27 C 63.09 123.14 49.66 124.78 38.98 118.00 L 40.73 118.13 C 46.34 120.50 52.36 121.79 58.47 121.56 C 58.79 119.98 59.11 118.40 59.44 116.83 C 55.49 116.72 51.48 116.78 47.65 115.67 C 47.12 116.63 46.63 117.60 46.18 118.59 C 46.36 117.29 46.32 116.00 46.08 114.72 C 43.35 114.41 40.62 114.14 37.88 113.99 C 39.96 113.71 42.05 113.60 44.14 113.63 C 49.26 115.69 54.84 115.91 60.27 115.56 C 60.31 114.25 60.38 112.95 60.48 111.65 C 60.53 112.63 60.62 114.60 60.67 115.59 C 65.97 115.38 71.15 114.18 76.31 113.06 C 76.32 110.84 76.31 108.62 76.55 106.41 C 76.75 108.59 76.77 110.78 76.80 112.98 C 83.04 111.09 89.29 109.23 95.40 106.95 C 95.49 106.12 95.66 104.45 95.75 103.61 C 96.24 104.50 96.73 105.39 97.21 106.28 C 100.93 104.43 105.58 103.93 108.46 100.74 C 109.38 100.54 110.34 100.90 111.29 100.86 Z" />
<path fill="#cf2f39" d=" M 107.55 127.63 C 110.67 118.61 113.58 109.52 116.70 100.50 C 121.79 100.47 126.89 100.41 131.98 100.45 C 134.66 100.50 138.17 100.88 139.12 103.89 C 139.92 109.52 135.55 114.97 130.09 116.14 C 130.77 116.71 131.44 117.29 132.11 117.87 C 133.05 121.07 133.70 124.33 134.02 127.65 C 130.86 127.68 127.70 127.70 124.55 127.66 C 123.76 124.39 123.25 121.02 121.99 117.88 C 121.43 117.64 120.31 117.15 119.76 116.91 C 118.39 120.49 117.17 124.11 115.88 127.71 C 113.10 127.71 110.33 127.68 107.55 127.63 Z" />
<path fill="#ffffff" d=" M 28.28 105.72 C 29.73 104.92 32.05 107.14 31.21 108.61 C 29.72 109.27 27.61 107.22 28.28 105.72 Z" />
<path fill="#cf2f39" d=" M 143.66 106.20 C 145.87 106.20 148.09 106.22 150.30 106.24 C 149.49 108.68 148.69 111.14 147.92 113.60 C 150.21 113.68 152.51 113.74 154.80 113.76 C 155.65 111.26 156.50 108.76 157.35 106.25 C 162.23 106.27 167.12 106.15 172.00 106.37 C 172.47 108.68 173.06 110.96 173.67 113.24 C 175.88 111.08 178.00 108.83 179.99 106.45 C 189.27 105.91 198.59 106.35 207.89 106.13 C 207.39 107.83 206.86 109.52 206.29 111.20 C 204.01 111.18 201.72 111.19 199.44 111.20 C 197.35 116.65 195.67 122.24 193.62 127.70 C 191.47 127.71 189.32 127.72 187.18 127.72 C 188.91 122.19 190.82 116.72 192.70 111.24 C 190.38 111.22 188.06 111.16 185.75 111.10 C 186.30 109.66 186.85 108.22 187.41 106.79 C 184.11 110.08 180.71 113.26 177.42 116.55 C 174.13 119.39 173.71 123.97 172.12 127.78 C 169.88 127.71 167.65 127.66 165.41 127.61 C 166.38 124.73 167.59 121.93 168.28 118.96 C 167.59 114.74 165.70 110.80 164.15 106.83 C 161.43 113.66 159.22 120.69 156.86 127.66 C 154.66 127.66 152.47 127.65 150.28 127.63 C 151.12 124.80 152.04 122.01 153.00 119.22 C 150.62 119.21 148.24 119.25 145.87 119.33 C 144.90 122.09 143.92 124.85 142.97 127.62 C 140.72 127.65 138.47 127.67 136.22 127.68 C 139.07 120.65 141.20 113.37 143.66 106.20 Z" />
<path fill="#cf2f39" d=" M 210.35 106.24 C 212.53 106.23 214.71 106.21 216.89 106.23 C 216.30 108.75 215.43 111.21 214.48 113.62 C 216.86 113.70 219.25 113.74 221.63 113.77 C 222.51 111.25 223.41 108.74 224.28 106.22 C 226.50 106.23 228.73 106.23 230.95 106.23 C 228.52 113.35 226.13 120.49 223.65 127.60 C 221.42 127.63 219.19 127.66 216.97 127.66 C 217.79 124.80 218.83 122.00 219.90 119.22 C 217.46 119.23 215.02 119.26 212.58 119.32 C 211.59 122.08 210.66 124.85 209.76 127.64 C 207.61 127.66 205.46 127.69 203.31 127.70 C 205.39 120.46 208.08 113.42 210.35 106.24 Z" />
<path fill="#cf2f39" d=" M 250.40 106.19 C 253.29 106.18 256.17 106.20 259.05 106.28 C 256.96 113.55 254.20 120.60 251.87 127.79 C 250.09 127.71 248.31 127.64 246.53 127.56 C 248.21 122.29 249.78 116.99 251.74 111.82 C 248.74 117.20 245.50 122.42 242.36 127.72 C 240.75 127.69 239.13 127.67 237.52 127.66 C 237.61 122.39 238.12 117.14 238.62 111.90 C 237.10 117.20 235.02 122.31 233.49 127.60 C 231.63 127.66 229.77 127.71 227.91 127.75 C 229.89 120.46 232.76 113.46 234.98 106.25 C 237.90 106.18 240.82 106.17 243.75 106.19 C 243.49 110.22 243.35 114.25 243.18 118.28 C 245.62 114.27 248.11 110.29 250.40 106.19 Z" />
<path fill="#ffffff" d=" M 121.19 111.79 C 121.93 110.06 122.68 108.33 123.48 106.63 C 125.09 106.70 126.71 106.75 128.32 106.80 C 128.82 107.12 129.81 107.76 130.31 108.08 C 129.22 112.28 124.63 111.95 121.19 111.79 Z" />
<path fill="#ffffff" d=" M 75.53 114.56 C 82.52 112.63 89.49 110.58 96.27 107.99 C 96.31 109.41 96.35 110.84 96.37 112.26 C 89.62 114.53 82.88 116.84 75.99 118.63 C 75.88 117.61 75.65 115.58 75.53 114.56 Z" />
<path fill="#ffffff" d=" M 33.28 109.15 C 33.80 109.74 33.80 109.74 33.28 109.15 Z" />
<path fill="#ffffff" d=" M 96.40 113.69 C 98.21 113.07 100.02 112.45 101.84 111.88 C 101.82 113.45 101.78 115.02 101.71 116.59 C 100.15 117.12 98.58 117.61 96.99 118.02 C 96.84 116.94 96.55 114.77 96.40 113.69 Z" />
<path fill="#010101" d=" M 136.56 116.23 C 135.99 115.05 137.30 113.04 138.59 113.30 C 139.17 114.45 138.04 116.98 136.56 116.23 Z" />
<path fill="#010101" d=" M 200.58 113.38 C 202.29 113.41 204.01 113.49 205.73 113.53 C 205.51 113.90 205.06 114.65 204.84 115.02 C 203.44 114.42 201.98 113.99 200.58 113.38 Z" />
<path fill="#ffffff" d=" M 30.26 113.75 L 30.66 113.59 C 32.94 113.98 34.94 115.10 36.74 116.49 C 36.26 117.16 35.29 118.52 34.81 119.19 C 32.54 118.60 30.47 116.03 30.26 113.75 Z" />
<path fill="#ffffff" d=" M 37.88 113.99 C 40.62 114.14 43.35 114.41 46.08 114.72 C 46.32 116.00 46.36 117.29 46.18 118.59 C 46.63 117.60 47.12 116.63 47.65 115.67 C 51.48 116.78 55.49 116.72 59.44 116.83 C 59.11 118.40 58.79 119.98 58.47 121.56 C 52.36 121.79 46.34 120.50 40.73 118.13 C 39.75 117.39 38.79 116.62 37.86 115.83 C 37.87 115.37 37.87 114.45 37.88 113.99 Z" />
<path fill="#ffffff" d=" M 75.30 120.24 C 82.20 118.36 89.02 116.20 95.80 113.89 C 96.13 115.38 96.45 116.87 96.78 118.35 C 89.30 120.67 81.95 123.38 74.38 125.39 C 74.66 123.67 74.98 121.96 75.30 120.24 Z" />
<path fill="#ffffff" d=" M 59.74 116.66 C 65.02 116.61 70.23 115.74 75.32 114.40 C 75.36 115.84 75.40 117.27 75.44 118.71 C 70.00 120.19 64.44 121.02 58.83 121.45 C 59.13 119.85 59.43 118.25 59.74 116.66 Z" />
<path fill="#ffffff" d=" M 38.18 117.94 L 38.98 118.00 C 49.66 124.78 63.09 123.14 74.76 120.27 C 74.73 120.86 74.68 122.04 74.65 122.63 C 72.27 123.08 70.57 124.71 69.24 126.62 C 65.47 127.46 61.63 127.85 57.79 128.00 C 57.67 126.41 57.55 124.83 57.39 123.25 C 57.36 124.91 57.34 126.58 57.33 128.24 C 49.86 128.36 41.83 126.59 36.25 121.33 C 36.88 120.19 37.52 119.06 38.18 117.94 Z" />
<path fill="#010101" d=" M 162.18 120.10 C 163.34 119.91 164.50 119.70 165.66 119.50 C 165.54 122.19 163.14 122.36 160.98 122.47 C 161.38 121.68 161.78 120.89 162.18 120.10 Z" />
<path fill="#010101" d=" M 177.33 119.96 C 180.67 119.32 184.09 119.94 187.44 120.12 C 187.14 120.64 186.54 121.68 186.24 122.20 C 182.99 122.27 179.75 121.93 176.51 121.80 C 176.71 121.34 177.13 120.42 177.33 119.96 Z" />
<path fill="#010101" d=" M 146.70 122.49 C 147.79 122.08 148.89 121.67 149.98 121.26 C 149.33 122.52 148.68 123.77 148.01 125.01 C 147.56 124.17 147.13 123.33 146.70 122.49 Z" />
<path fill="#ffffff" d=" M 74.21 126.89 C 80.83 125.15 87.36 123.07 93.83 120.82 C 91.45 122.57 90.22 125.22 89.54 128.00 C 78.14 131.47 66.76 136.28 54.63 135.94 C 55.66 133.90 56.35 131.71 56.87 129.49 C 60.76 129.26 64.73 129.38 68.47 128.09 C 68.77 129.25 69.25 130.33 69.93 131.30 C 71.74 130.25 73.03 128.58 74.21 126.89 Z" />
<path fill="#010101" d=" M 198.17 121.97 C 199.70 122.43 201.24 122.88 202.77 123.38 C 201.85 125.95 199.35 124.45 197.42 124.26 C 197.67 123.49 197.92 122.73 198.17 121.97 Z" />
<path fill="#010101" d=" M 214.28 121.91 C 214.79 121.77 215.82 121.50 216.33 121.36 C 215.44 124.32 214.44 127.24 213.27 130.10 C 216.74 129.93 220.22 129.96 223.70 130.01 C 221.57 131.90 219.46 133.83 217.60 135.99 C 218.20 138.02 219.10 139.96 219.64 142.02 C 219.34 143.75 218.69 145.44 218.81 147.23 L 217.82 147.51 C 217.81 146.87 217.79 145.58 217.78 144.93 C 217.19 145.50 216.02 146.63 215.43 147.20 C 214.97 150.36 212.68 152.40 209.72 153.29 C 209.16 152.36 208.60 151.43 208.04 150.51 C 210.91 147.24 213.24 143.51 213.48 139.04 C 209.65 140.31 207.10 144.08 202.94 144.45 C 201.32 139.68 205.20 136.02 206.66 131.82 C 207.45 131.25 208.23 130.68 209.01 130.11 C 209.66 130.03 210.95 129.88 211.60 129.81 C 212.49 127.18 213.28 124.50 214.28 121.91 Z" />
<path fill="#ffffff" d=" M 39.46 131.95 C 42.72 132.56 42.89 129.22 44.13 127.34 C 47.56 128.79 51.24 129.56 54.96 129.46 C 53.37 131.42 52.09 133.61 51.44 136.07 C 47.17 135.58 43.29 133.75 39.46 131.95 Z" />
<path fill="#010101" d=" M 233.48 129.91 C 236.13 130.12 238.95 129.60 241.49 130.45 C 242.85 133.68 243.79 137.08 244.36 140.54 C 246.62 145.15 250.81 148.88 251.21 154.26 C 250.18 154.95 249.15 155.63 248.12 156.31 C 246.89 155.07 245.63 153.87 244.35 152.69 C 244.15 149.95 243.57 147.26 242.18 144.86 C 240.75 141.02 238.95 137.26 235.91 134.42 C 235.25 132.83 234.42 131.34 233.48 129.91 Z" />
<path fill="#ffffff" d=" M 39.25 133.80 L 39.89 133.84 L 39.85 134.48 L 39.21 134.44 L 39.25 133.80 Z" />
</svg>
